<?xml version="1.0" standalone="no"?>
<!DOCTYPE svg PUBLIC "-//W3C//DTD SVG 20010904//EN"
 "http://www.w3.org/TR/2001/REC-SVG-20010904/DTD/svg10.dtd">
<svg version="1.0" xmlns="http://www.w3.org/2000/svg"
 width="337.000000pt" height="143.000000pt" viewBox="0 0 337.000000 143.000000"
 preserveAspectRatio="xMidYMid meet">

<g transform="translate(0.000000,143.000000) scale(0.100000,-0.100000)"
fill="#000000" stroke="none">
<path d="M1756 1185 c-3 -9 1 -18 10 -22 19 -7 39 11 30 26 -10 16 -33 13 -40
-4z"/>
<path d="M377 1164 c-76 -75 -25 -209 77 -202 27 2 42 8 44 18 2 12 -5 15 -35
12 -51 -5 -78 24 -78 83 0 57 25 85 77 85 27 0 38 4 38 15 0 11 -12 15 -49 15
-39 0 -53 -5 -74 -26z"/>
<path d="M545 1105 c-51 -51 -18 -145 51 -145 49 0 74 29 74 84 0 36 -5 48
-26 65 -35 28 -69 26 -99 -4z m71 -13 c32 -21 21 -102 -14 -102 -27 0 -42 20
-42 55 0 44 27 67 56 47z"/>
<path d="M767 1113 c-11 -11 -17 -13 -17 -5 0 7 -9 12 -20 12 -18 0 -20 -7
-20 -80 0 -73 2 -80 20 -80 18 0 20 7 20 64 0 56 3 66 20 71 33 10 40 -3 40
-71 0 -57 2 -64 20 -64 18 0 20 7 20 64 0 56 3 66 20 71 33 10 40 -3 40 -71 0
-57 2 -64 20 -64 18 0 20 7 20 70 0 64 -2 71 -26 87 -25 16 -29 16 -55 1 -24
-14 -30 -14 -40 -2 -16 19 -41 18 -62 -3z"/>
<path d="M1052 1121 c-7 -4 -24 -6 -38 -3 l-24 4 0 -116 c0 -109 1 -116 20
-116 16 0 20 7 20 35 0 32 2 35 30 35 71 0 107 94 55 145 -25 26 -41 30 -63
16z m36 -33 c16 -16 16 -70 0 -86 -7 -7 -22 -12 -35 -12 -21 0 -23 5 -23 49 0
47 7 58 36 60 5 1 15 -4 22 -11z"/>
<path d="M1235 1120 c-3 -6 -17 -7 -31 -4 -24 6 -24 6 -24 -76 0 -72 2 -81 18
-78 13 3 18 15 20 65 3 55 5 62 27 67 14 4 25 13 25 21 0 17 -26 20 -35 5z"/>
<path d="M1324 1120 c-27 -11 -47 -68 -38 -104 13 -53 81 -73 125 -37 19 15
24 29 24 65 0 27 -6 51 -15 60 -20 20 -69 28 -96 16z m66 -39 c23 -43 6 -91
-32 -91 -35 0 -51 66 -22 94 21 21 41 20 54 -3z"/>
<path d="M1540 1120 c-8 -5 -25 -7 -37 -3 -22 5 -23 3 -23 -76 0 -65 3 -81 15
-81 12 0 15 14 15 64 0 57 3 65 21 71 31 10 41 -7 43 -72 1 -46 4 -58 19 -61
15 -3 17 5 17 62 0 56 3 66 20 71 33 10 40 -3 40 -71 0 -57 2 -64 20 -64 18 0
20 7 20 69 0 93 -26 122 -78 85 -20 -14 -24 -14 -38 0 -18 18 -32 20 -54 6z"/>
<path d="M1858 1119 c-11 -6 -18 -22 -18 -40 0 -24 7 -32 35 -46 46 -22 46
-43 -1 -43 -45 0 -42 -24 4 -28 76 -8 99 57 32 90 -44 22 -45 42 -2 46 20 2
32 8 29 15 -5 16 -57 20 -79 6z"/>
<path d="M2005 1105 c-71 -70 21 -187 102 -130 44 31 36 121 -13 144 -38 17
-62 13 -89 -14z m79 -21 c29 -28 13 -94 -22 -94 -27 0 -42 20 -42 55 0 50 33
71 64 39z"/>
<path d="M1760 1040 c0 -64 3 -80 15 -80 12 0 15 16 15 80 0 64 -3 80 -15 80
-12 0 -15 -16 -15 -80z"/>
<path d="M413 777 c-54 -20 -78 -52 -78 -100 0 -62 25 -92 108 -132 104 -50
127 -85 87 -125 -16 -16 -33 -20 -79 -20 -33 0 -71 4 -85 10 -23 8 -26 7 -32
-16 -9 -35 4 -44 69 -51 134 -14 207 25 207 111 0 60 -24 87 -125 139 -72 38
-80 45 -83 74 -5 46 31 67 101 61 28 -3 59 -7 67 -9 22 -6 26 47 4 55 -35 13
-130 15 -161 3z"/>
<path d="M1387 773 c-4 -3 -7 -89 -7 -189 0 -176 1 -184 23 -209 43 -50 147
-42 147 11 0 12 -8 13 -34 9 -27 -6 -39 -2 -55 14 -18 18 -21 33 -21 111 l0
90 55 0 c52 0 55 1 55 24 0 23 -4 25 -52 28 l-53 3 -3 58 c-3 52 -5 57 -26 57
-12 0 -26 -3 -29 -7z"/>
<path d="M2510 725 l0 -55 -62 0 c-102 0 -153 -43 -164 -136 -17 -140 89 -237
190 -174 30 18 36 19 36 6 0 -11 9 -16 30 -16 l30 0 0 215 0 215 -30 0 c-30 0
-30 -1 -30 -55z m-2 -204 c2 -57 -1 -98 -8 -106 -17 -20 -68 -28 -98 -16 -38
16 -55 47 -54 100 2 90 32 122 112 118 l45 -2 3 -94z"/>
<path d="M744 656 c-89 -39 -111 -196 -39 -275 31 -33 38 -36 88 -36 40 0 61
5 76 19 19 17 21 17 21 3 0 -12 9 -17 30 -17 l30 0 0 154 c0 151 0 154 -22
160 -41 10 -152 6 -184 -8z m144 -142 c3 -100 2 -101 -23 -112 -42 -19 -74
-14 -106 17 -24 24 -29 38 -29 76 0 54 22 102 53 115 12 5 40 8 62 7 l40 -2 3
-101z"/>
<path d="M1053 663 c-23 -4 -23 -7 -23 -159 l0 -154 30 0 29 0 3 133 3 132 52
3 c42 2 56 -1 72 -17 19 -19 21 -33 21 -136 l0 -115 30 0 30 0 0 126 c0 69 -5
134 -10 145 -19 34 -64 49 -142 48 -40 -1 -83 -4 -95 -6z"/>
<path d="M1652 650 c-50 -31 -72 -75 -72 -145 0 -74 24 -123 71 -147 45 -24
90 -23 123 3 23 18 27 18 32 5 4 -10 18 -16 35 -16 l29 0 0 154 c0 178 8 166
-115 166 -52 0 -78 -5 -103 -20z m146 -137 l-3 -108 -38 -10 c-30 -7 -45 -5
-65 6 -33 18 -55 80 -47 129 11 62 45 89 113 90 l43 0 -3 -107z"/>
<path d="M1973 663 c-23 -4 -23 -7 -23 -159 l0 -154 30 0 30 0 0 135 0 135 49
0 c84 0 94 -16 99 -154 l5 -116 28 0 29 0 0 121 c0 136 -12 171 -63 189 -29
10 -139 12 -184 3z"/>
<path d="M2699 653 c-45 -27 -64 -71 -64 -143 1 -83 21 -121 78 -149 72 -35
172 -26 188 17 5 14 8 26 6 29 -2 2 -27 -2 -55 -8 -61 -13 -113 0 -137 34 -30
43 -22 47 95 47 l110 0 0 46 c0 58 -22 105 -59 127 -38 22 -127 22 -162 0z
m130 -50 c21 -18 33 -56 19 -60 -5 -2 -39 -3 -78 -3 -78 0 -89 13 -48 57 26
28 77 31 107 6z"/>
<path d="M3008 663 c-16 -4 -18 -20 -18 -159 l0 -154 30 0 30 0 0 134 0 135
53 3 c45 3 52 6 55 26 3 21 0 22 -65 21 -37 -1 -76 -3 -85 -6z"/>
</g>
</svg>
